<svg xmlns="http://www.w3.org/2000/svg" xml:space="preserve" enable-background="new 0 0 991.1 252.3" viewBox="0 0 991.1 252.3"><path fill="#FFF" fill-rule="evenodd" d="M83.3 55.1c1.8.4 3.6 1 5.1 1.9 3.8 2.3 5.1 5.5 3.7 9.7-5.6 16.9-11.4 33.7-17.2 50.5-9.9 27.9-19.8 55.8-29.6 83.7-1.5 4.3-2.6 8.8-4 13.8 1.2-.6 2-1 2.7-1.5 11.9-7.9 23.9-15.8 35.8-23.6 11.3-7.5 23-14 36-18 4.8-1.5 9.4-1.6 14.2-.5 1.5.4 2.2.1 2.9-1.5 10-23.3 24.6-43.3 43.7-60 4.3-3.8 8.8-7.7 14.9-8.5 6.5-.8 15.4 1.2 17 9.5 1.1 5.5-.3 10.8-3.3 15.3-8.7 13.5-18.9 25.6-32.7 34.2-7.9 4.9-16.1 8.8-25.1 11-2.1.5-3.4 1.6-4 3.6-.6 2-1.5 4-1.7 6-.4 6.2 3 10.5 9.9 8 8.9-3.3 17.5-7.5 25.8-12 16-8.7 31.1-19 45.6-30.2 4.4-3.5 7-8 10-12.3 4-5.9 7.9-11.8 12-17.6.8-1.2 1.9-2.3 3-3.3 1.6-1.5 3.5-2.3 5.8-1.3 1.6.7 3.3 1.2 4.8 2.1 3.5 1.9 4.1 4.2 1.8 7.5s-5 6.3-7.5 9.5c-8 10.4-15.9 20.8-21.3 32.8-1.7 3.8-2.8 7.7-2 12.8 2.3-1.4 4.5-2.3 6.2-3.9 7.7-6.8 15.4-13.6 22.8-20.8 15.2-14.8 30.2-29.8 45.3-44.7 2.8-2.8 5.8-3.1 9.1-.7 1.8 1.4 3.7 2.7 5.5 4.1 2.1 1.7 2.2 3.9.4 6.5l-1.9 2.6-3.8 5.2c-1.9 2.6-3.7 5.2-5.4 8-8.5 13.9-16.9 27.9-25 42.1-4.6 8.1-6.6 17.1-6.6 26.4 0 1.2.8 2.6 1.5 3.7.8 1.1 2.3 1.8 1.1 3.5-1.1 1.5-2.5 2.3-4.5 1.8-8.9-2.1-12.2-10-11.2-18.2 1-7.5 3.8-14.3 7.3-20.9 3.5-6.6 6.9-13.2 10.4-19.8.2-.4.4-.9.5-1.3l-.3-.2c-5.1 5.3-10 10.9-15.3 15.9-7.5 7.1-15.2 14.1-23.1 20.8-6.1 5.2-16.3 4.5-23.4-1-4.8-3.6-7.2-8.2-5.9-14.4.1-.5 0-1 0-1.9-.8.4-1.3.7-1.9 1.1-12 7.5-24 15.1-36.2 22.5-6.9 4.2-14.2 7.5-22.4 8.5-9.8 1.2-19.8-3.3-22.6-13.2-.7-2.4-.8-5-1.2-7.9-2.6 1-5.2 2-7.8 3.2-21.6 9.9-41.5 22.7-60.7 36.6-2.8 2.1-5.7 4.1-8.6 6-6.4 4.1-12.9 4.1-19.2 0-2.2-1.4-4.3-3.1-6.2-4.9-2.2-2.2-2.6-5-1.8-8 5.9-22.2 13.8-43.7 21.5-65.3 9.6-26.8 19.1-53.6 28.6-80.4 1-2.9 1.5-6.1 2.4-9.1 1-3.1 2.9-4.3 6.1-3.5zm284.5 1.2c1.2.8 2.2 1.7 3.4 2.5 3.1 2.2 4.2 5.4 3 8.8-3.3 9-6.8 18-10.6 26.7-4.2 9.6-9 19-13.6 28.4-.3.6-.5 1.2-1.1 2.4 15.7-8.5 31.5-15.5 48.2-20.3 2-.6 4.1-.7 6.2-.8 3-.2 4.7 1.5 5.7 4.1.9 2.5.7 4.9-1.5 6.4-2.9 2-6 4-9.3 5.3-19.5 7.5-38.1 16.8-55.8 27.9-.7.5-1.5.9-2.7 1.7 2.4 1.7 4.5 3.2 6.8 4.7 12.5 8.5 26.5 14.1 40.5 19.7 3.9 1.5 7.6 3.5 11.1 5.8 3.1 2 3.4 4 2.2 6.5-1.1 2.3-3.6 3.4-6.7 2.9-9.2-1.6-18.2-4.1-26.8-7.6-12.2-4.9-23.7-11.2-34.2-19.2-.5-.4-1-.7-2.2-1.4-2.9 8.7-6.2 17.1-8.5 25.7-1.2 4.4-2.2 8.8-3.1 13.2l-1.8 8.9c-.3 1.5-.6 3-1 4.4-.8 3.4-3.2 4.7-6.5 3.6-5.2-1.8-7.5-6.9-6.6-13 4.3-28.6 15.2-54.9 28-80.5 9.2-18.5 17.7-37.3 26.5-56 1.3-2.8 2.2-5.9 3.4-8.8 1.6-3.9 3.5-4.4 7-2zM651.4 107c1.4 2.2 1.9 4.6.9 7-2.7 6.8-5.4 13.6-8.5 20.3-4 8.6-8.6 22.9-9 29.5 2.5-2.3 4.8-4.3 7.1-6.4 10.2-9.5 20.2-19.1 30.6-28.3 3.8-3.4 8.1-6.5 12.7-8.6 4.2-1.9 8.8-.7 12.6 2.2 4 3.1 5.1 7.9 3.3 13-4 11.1-7.9 22.2-11.7 33.3-2.1 6.2-2.5 12.7-1.5 19.2.6 3.5-.3 5.7-2.7 6.8-3.1 1.5-6.7.6-9-2.2-3.2-4-4.3-8.8-4.6-13.7-.6-8.9 2.5-17 5.6-25.1 1.6-4.3 3.3-8.6 5-12.9-.1-.1-.2-.1-.3-.2-7.6 7.2-15.2 14.3-22.8 21.5-5.1 4.9-10.2 9.7-15.1 14.7-6.1 6.3-13.6 5-19.7-.2-3.2-2.8-6.2-5.9-5.8-10.4.3-3.5 1.3-7 2.2-10.5 2-7.4 4.2-14.7 6.1-22.3-2.5 3-5.2 6-7.6 9.1-11 14.7-21.9 29.4-33.1 44-2.9 3.8-6.3 7.1-9.6 10.5-1.9 2-4.4 2.8-7.2 2.5-4.5-.4-6.7-3.3-5.1-7.6 1.1-2.8 2.7-5.5 4.5-7.9 12-16.2 23.9-32.4 36.1-48.3 8.7-11.3 18.2-21.9 28.8-31.5 5-4.3 14.1-3.4 17.8 2.5zm-80.4-3.4c5.1 2.1 7.4 7.5 6.5 13-1.5 9.9-7.2 17.4-13.4 24.6-13.2 15.1-29.6 25.3-49 30.6-3.5 1-3.8 4.4-4.3 7.2-.9 5 3.2 8.7 8 7.1 6.2-2 12.3-4.5 18.2-7.3 7.2-3.4 14-7.5 21.3-10.8 2.3-1 4.8-1.6 7.3-2.1l3-.6 1.5-.3c1-.2 2.1.1 3 .5 2.5.9 3 2.7 1.5 4.9-.5.7-1.1 1.4-1.8 1.9-11.4 7-22.8 14.1-34.4 20.9-6.2 3.6-13.1 5.7-20.5 5.6-10.3-.1-18.2-6.4-20.3-16.4-3.1 1-6.2 2.4-9.4 2.8-4.4.5-8.9 1-13.2.3-7-1.1-11.6-6.3-12.3-13.5-.5-5.2-.1-10.5-.1-16.2-4.6 5.7-8.6 11.1-13 16.2-9 10.4-19.2 19.3-32.3 24.2-7.4 2.8-12.7-1.3-12.3-9.2.7-13.3 6-25.1 12.5-36.4 9.6-16.6 22.2-30.5 39.1-40.1 6.9-4 14.3-6.5 22.4-6.3 2.8.1 5.6.6 8.3 1.2 3 .7 4.4 3.4 3.5 6.5-2.7 9.3-5.9 18.5-8.1 27.8-1.9 7.9-2.9 15.9-4 24-.2 1.7.2 3.5.6 5.2.9 3.8 3.3 5.2 7.3 4.4 2-.4 3.8-1.1 5.8-1.7 5.3-1.8 9-4.7 11.6-10.2 7.9-17 19.2-31.6 33.4-44 4.4-3.8 8.6-7.8 13.2-11.4 6.1-4.9 13.1-5.5 20.4-2.4zm167.5 9.5c1.8.7 3.7 1.7 5.2 3 2.7 2.3 2.8 4.3 1.3 7.5L733.8 147c-3.7 7.8-7.4 15.7-11 23.5-2.5 5.4-4.6 11.1-4.6 17.3 0 1 .6 1.9.9 2.9.3 1.2 1.3 2.7.8 3.4-.6 1.1-2.2 1.6-2.8 1.9-7-.5-14-3.5-14.9-11.1-.4-3.1.5-6.6 1.4-9.7 6.1-21.5 15.1-41.7 28.2-59.9 2.2-2.9 3.3-3.5 6.7-2.2zm77.9-7.6c4.1 1.1 5.2 4.1 3.8 8.8-2.8 9.6-5.7 19.2-8.3 28.9-2.1 8-3.5 16.1-3 24.4 0 .8.1 1.6.3 2.3 1.3 5.2 3.4 6.5 8.5 5.2 3.4-.9 6 .2 8.2 2.8 1.7 2 1.5 4.9-.9 6.1-8 3.9-16.3 5.4-24.7 1.3-5.5-2.7-7.3-8.1-7.8-13.8-.4-4.5-.1-9.1-.1-13.3-3.7 4.4-7.5 9.3-11.7 13.9-8.4 9.3-17.9 17.1-29.6 22-2.5 1-5.6 1.6-8.3 1.3-3.5-.4-5.9-4-6-7.6-.2-12.4 4-23.5 9.5-34.3 9.3-18.2 22.7-32.7 40.3-43 5.9-3.4 12.2-5.8 19-6.2 3.9-.3 7.5.3 10.8 1.2zm-344.1 12.8c-.5 0-1 0-1.5.1-7 1.7-12.8 5.6-18.1 10.2-13 11-22.2 24.7-28.8 40.3-1.7 4-3 8.2-4.4 12.4l.8.4c21.3-17.8 37.5-39.8 52.7-62.7l-.7-.7zm328.8.1c-5.6 1.3-10.4 4.1-14.8 7.6-18 13.9-29.3 32.2-34.8 54.8 22.5-16.6 37.8-38.6 51.8-62.3-1.2-.1-1.7-.2-2.2-.1zm-238.7-3.6c-15.3 11.2-28.5 24-40 39.5 16.3-5 40.3-28.7 40-39.5zm-368.7-.6c-9.9 4.9-36.1 31.3-39.4 39.5 14.4-2.3 39.9-29.9 39.4-39.5zM932 31.5c4.4 2.9 5.4 4.8 3.3 9.6-3.8 9.1-7.9 18.1-11.9 27.1-.8 1.7-1.6 3.4-2.7 5.6 8.6-4.1 16.5-8 24.6-11.8 4.1-1.9 8.3-3.6 12.5-5.2 1-.4 2.3-.4 3.3-.2 2.7.6 3.8 3.3 1.9 5.4-1.8 1.9-3.8 3.8-6 5-6.1 3.3-12.3 6.6-18.4 9.8l-18.5 9.7c-.8.5-1.7.9-2.9 1.4.8.5 1.5.9 2.1 1.2l35.4 18.9c1.2.6 2.3 1.3 3.3 2.1 1.7 1.4 2.5 3.1 1.6 5.4-1 2.3-3.2 2.6-5.1 2.3-2.3-.3-4.6-1.1-6.7-2.1-12.5-5.9-24.9-11.9-37.8-18-3 9.3-6.1 18.8-8.9 28.3-.7 2.2-1.1 4.2-3.8 4.2-3 .1-6-2.3-6-5.2.1-4 .5-8 1.3-11.9 3.3-14.5 9.5-27.8 15.7-41.1l2.5-5.3c5.2-11.1 10.2-22.3 15.3-33.4 1.6-3.3 2.9-3.7 5.9-1.8zm-30.3 30.3c2.7 1.9 3 3.4 1.2 6.2-5.6 8.6-11.3 17.2-16.8 25.8-4.4 6.9-8.6 13.9-13.1 20.7-3.1 4.8-6.9 9-12.3 11.2-2.3 1-4.8 1.4-7.2 2.1-11-.6-18.4-8.5-15.7-20.3 3.1-14 7.8-27.5 15.1-40 1.6-2.8 3.8-5.1 7-6 2.4-.7 4.7-.2 6.3 1.5 1.7 1.8.6 3.8-.4 5.6-6 11.2-11.6 22.6-15.4 34.7-.7 2.3-1 4.8-1.3 7.2-.4 2.5.8 4.1 3.1 4.8 2.3.8 4.7 1.2 6.5-1 2.7-3.5 5.5-7.1 7.9-10.8 8.6-13.2 17-26.4 25.5-39.6 2.3-3.6 6.2-4.4 9.6-2.1zM756.8 95.3c-.3 5.3-5.6 11.4-10.5 11.3-5 0-10.2-5.5-10.2-10.8 0-5.4 3.9-8.8 10.1-8.8 4.7-.3 10.9 3.7 10.6 8.3zM897 153.9c11.7 1.7 23.4 3.3 35.1 5.1 8.1 1.3 16.1 2.8 24.1 4.2 3 .6 5 3.5 4.7 6.7-.3 3.1-2.8 5.7-6 5.3-5.8-.7-11.6-2-17.4-2.9-12.8-1.9-25.7-3.9-38.6-5.5-11.1-1.4-22.2-2.2-33.3-3.4-1.1-.1-2.3-.2-3.4-.6-4.6-1.6-5.4-6.6-1.5-11.3-2.6-.2-5-.5-7.3-.6-3.5-.2-7-.3-10.5-.7-3.4-.4-5.6-2.5-5.9-5.4-.4-3.1 1.1-5.6 4-6.6 1-.3 2.1-.4 3.1-.4 12.2.6 24.4 1.3 36.6 2 10.4.6 20.7 1.2 31.1 1.7 16.2.8 32.3 1.4 48.5 2.1 3.4.1 6.1 3.1 6 6.5-.1 3.2-2.9 5.9-6.5 6-1.7 0-3.3-.2-5-.3-15.1-.6-30.2-1.1-45.3-1.7l-12.3-.6c-.1.2-.2.3-.2.4" clip-rule="evenodd"/></svg>