<svg class="site-logo" aria-hidden="true" focusable="false" xmlns="http://www.w3.org/2000/svg" xml:space="preserve" enable-background="new 0 0 530 190" viewBox="0 0 530 190"><path fill="currentColor" d="M520.6 177.8H9.4V12.2h511.3v165.6zm-505.2-6h499.3V18.2H15.4v153.6z"/><path fill="currentColor" d="M415.4 97.5c.1-.7.3-1.5.3-2.2-.1-7.6-.3-15.2-.4-22.8-.1-4.8-.1-9.6 0-14.4 0-1.9.3-2.1 2.1-2.1h10.3c.2 1.4.4 2.5.4 3.7.1 6.2.1 12.5.1 18.7v53.9c0 1.1-.6 1.6-1.6 1.6h-7.7c-1.1 0-1.5-.9-1.8-1.6-1.8-3.8-3.6-7.7-5.4-11.5-3.7-7.8-7.3-15.6-11-23.4-.3-.8-.9-1.4-1.6-2.6-.3 1.1-.6 1.6-.6 2 .1 8.5.3 17.1.4 25.6 0 3 .2 5.9.2 8.9 0 2.4-.3 2.6-2.6 2.6h-7.9c-2.3 0-2.4-.1-2.4-2.5v-30.2c0-11.9-.1-23.8-.2-35.7 0-2.4-.1-4.8-.1-7.2 0-1.9.3-2.4 2.3-2.4 2.2 0 4.3.1 6.5-.1 1.8-.1 2.6.6 3.2 2.2 2.4 5.8 4.9 11.6 7.3 17.4 2.9 6.9 5.9 13.8 8.9 20.7.2.5.6.9.9 1.3.1.2.2.1.4.1zM205.5 56.1c.1 1.2.2 2.1.2 3V132.2c-.1 1.5-.4 1.8-1.9 1.8-2.2 0-4.3-.1-6.5 0-1.5.1-2.2-.5-2.7-1.8-1.2-2.8-2.5-5.5-3.8-8.2l-11.7-24.9c-.5-1.2-1-2.3-1.6-3.5-.2-.4-.6-.6-1.1-1-.9 1.5-.5 2.9-.4 4.3.1 1.6.3 3.2.3 4.8 0 5.1 0 10.2.1 15.3.1 4.1.3 8.1.4 12.2.1 2.6-.1 2.8-2.7 2.8h-7.7c-2.4 0-2.6-.1-2.6-2.6v-16.8c-.1-18.4-.1-36.7-.2-55.1 0-3.5 0-3.5 3.4-3.5 1.8 0 3.5.1 5.3 0 1.6-.1 2.5.4 3.1 1.9 1.7 4.1 3.5 8.2 5.2 12.3 2.8 6.5 5.5 13.1 8.3 19.6.9 2.1 1.8 4.1 2.6 6.2.2.5.6 1 1.2 2 .3-1 .5-1.5.5-2-.1-9-.3-18-.4-27.1v-11c0-1 .2-1.8 1.4-1.8h11.3zM255.1 107.1h-5.6c-2.3 0-2.5-.2-2.5-2.4V94c1.8-.6 18-.8 21.6-.3.1.6.2 1.2.2 1.8 0 5.9.1 11.8 0 17.7-.1 8.5-5.9 17.1-13.8 20.2-8.1 3.1-15.5 1.7-22-4-5.2-4.6-7.8-10.4-7.7-17.4.1-11.8 0-23.5 0-35.2 0-10 7-18.8 16.7-21.4 10-2.7 20.9 3.2 24.9 12.2 1.9 4.4 2 9 1.9 13.6 0 1-.5 1.5-1.5 1.5H257c-1.1 0-1.5-.6-1.6-1.6-.1-1.9-.1-3.8-.3-5.7-.5-3.8-3.9-7-7.5-7.1-4.3-.1-7.7 2.4-8.6 6.4-.2 1.2-.4 2.5-.4 3.8v32.4c0 1.4.2 2.9.5 4.3.7 3.6 4 6.2 7.8 6.2 4 0 7.4-2.3 8.2-6 .5-2.6.6-5.3 0-8.3zM44.1 107.1h13.2c.1 1 .2 1.9.3 2.9.2 1.8.2 3.7.6 5.4 1 4 4.7 6.5 8.6 6.1 4-.4 7.3-3.8 7.7-7.7.3-2.7-.5-4.9-2.7-6.5-1.3-1-2.6-1.9-4-2.7-3.5-2-7.1-4-10.7-6-6.5-3.5-10.8-8.8-12.3-16.2-2.2-10.4 2.1-19.6 10.7-24.8 2.3-1.4 4.9-2.1 7.6-2.5 4.8-.7 9.2.3 13.3 2.6 4.4 2.4 7.6 6.1 9.7 10.6 1.3 2.8 1.8 5.8 1.9 8.8.1 2.5 0 5.1 0 7.7 0 1-.4 1.7-1.5 1.7H74.8c-.1-1-.3-1.8-.3-2.7 0-2.4.1-4.8 0-7.2-.4-7.3-6.6-9.6-11.3-7.9-3.1 1.1-4.9 3.5-5.3 6.8-.6 4.8.9 8.7 5.3 11.1 4.2 2.4 8.4 4.7 12.5 7 2.9 1.6 5.4 3.6 7.6 6.1 4.5 5.1 5.6 11 4.2 17.5-1.4 6.5-5.1 11.5-10.8 14.8-8.5 5-19.6 3.5-26.6-4.3-4.1-4.6-6.1-9.8-6.1-15.9.1-1.4.1-2.9.1-4.7zM287.8 56.1h11.6c1.1 0 1.6.6 1.6 1.6V111.4c0 1.6.2 3.2.7 4.7.9 3 3.6 5.5 7.6 5.4 3.6 0 6.3-1.6 7.7-5.6.5-1.5.7-3.3.7-4.9 0-6.5-.2-13.1-.2-19.6 0-11 .1-22 .2-33 0-.6.1-1.2.2-1.9.4-.1.7-.3 1-.3 3.4 0 6.9-.1 10.3 0 1.6 0 1.8.3 1.8 1.8v1.2c0 17.8.1 35.6 0 53.4 0 9.7-4.9 16.7-13.5 20.6-7.2 3.4-14.5 2.4-21-2.5-4.7-3.5-7.9-8.1-8.9-14-.2-1.6-.3-3.2-.3-4.8 0-17.6 0-35.3.1-53 .2-.8.3-1.6.4-2.8zM145 131.4c-.7-4.2-1.4-8.3-2.1-12.5-1.5-8.4-2.9-16.8-4.4-25.2-1-5.6-2-11.1-3-16.7-1.1-6.4-2.2-12.7-3.4-19-.3-1.9-.4-1.9-2.3-1.9H118c-3.8 0-3.1-.2-3.9 3.3-1.4 7.2-2.6 14.4-3.9 21.6-1.5 8.5-2.9 16.9-4.4 25.4-1.5 8.1-3 16.3-4.5 24.4-.2 1-.1 2-.2 3.2h11.8c1.1 0 1.3-.8 1.5-1.8.3-2.3.8-4.5 1.1-6.8h15.1c.2.7.3 1.3.4 1.9.3 1.6.6 3.3.8 5 .2 1.3.8 1.8 2.1 1.8h11.2c0-1.2 0-1.9-.1-2.7zm-18-18.3h-9.1c1.6-10.8 3.3-21.1 5-31.4h.6c.2.5.5 1.1.6 1.6 1.2 8.1 2.3 16.2 3.5 24.4.2 1.2.3 2.5.6 3.8.3 1.1-.1 1.6-1.2 1.6zM449 56.1h36.8c.2 4.5.2 8.7 0 13.1-1.1.1-2 .2-2.9.2h-18.7c-1.2 0-1.8.6-1.8 1.8v13.2c0 .9.2 1.7.3 2.8h22.5c.8 1.9 1 10.3.3 13.2-.8 0-1.6.1-2.5.1h-19c-1.5.1-1.7.3-1.7 1.9v17.5c1.1.1 2 .3 2.9.3h17c3.6 0 3.6 0 3.6 3.7v5c0 5.9.3 5-5 5H452c-.6 0-1.3.1-1.9-.1-.5-.2-1-.7-1.2-1.2-.2-.6-.1-1.3-.1-1.9V59c.2-.7.2-1.5.2-2.9zM351.6 56.2h12.9c.1.8.2 1.6.2 2.3.1 24.1.1 48.2.2 72.3v.7c-.1 2.2-.2 2.4-2.5 2.4h-8.9c-1.9 0-2-.2-2.1-2V64.8c0-2.7.2-5.5.2-8.6z"/></svg>
