<svg xmlns="http://www.w3.org/2000/svg" xml:space="preserve" viewBox="0 0 880 143.4"><path d="M97.1 92.3c0 5.4-1.3 10-3.9 13.9-2.6 3.9-6.4 6.9-11.3 9s-10.8 3.1-17.6 3.1c-3.3 0-6.4-.2-9.4-.6-3-.4-5.9-.9-8.6-1.7-2.7-.7-5.2-1.7-7.4-2.7V98.6c3.8 1.7 8 3.2 12.6 4.5 4.6 1.4 9.2 2.1 13.9 2.1 3.7 0 6.7-.5 9.2-1.5s4.2-2.4 5.4-4.2c1.2-1.8 1.8-3.9 1.8-6.3 0-2.6-.7-4.8-2.2-6.6-1.5-1.8-3.6-3.5-6.5-5s-6.4-3.2-10.6-4.9c-2.8-1.2-5.5-2.5-8.2-4-2.7-1.5-5.1-3.3-7.2-5.4-2.1-2.1-3.8-4.5-5.1-7.4-1.3-2.8-1.9-6.2-1.9-10.1 0-5.2 1.2-9.6 3.7-13.3s6-6.5 10.5-8.5 9.8-3 15.8-3c4.8 0 9.2.5 13.5 1.5S92 29 96.2 30.8l-5 12.6c-3.8-1.6-7.4-2.8-10.9-3.7s-7-1.4-10.6-1.4c-3 0-5.5.5-7.6 1.4-2.1.9-3.7 2.2-4.7 3.8-1.1 1.7-1.6 3.6-1.6 5.8 0 2.6.6 4.7 1.9 6.5s3.3 3.3 6 4.8 6.2 3.1 10.5 4.9c4.9 2.1 9.1 4.3 12.6 6.6 3.4 2.3 6.1 5 7.9 8.2 1.5 3.3 2.5 7.2 2.4 12zM193.7 117.1l-8.4-24.4h-34.4l-8.4 24.4h-16.7l33.4-91h17.9l33.4 91h-16.8zm-12.4-37.9-8.2-24.1c-.4-1.2-.9-2.7-1.5-4.7s-1.2-4.1-1.9-6.2c-.6-2.1-1.2-3.9-1.6-5.3-.4 1.7-.9 3.6-1.6 5.8-.6 2.2-1.2 4.2-1.8 6.1s-1 3.3-1.3 4.3l-8.2 24.1h26.1zM322.2 117.1h-19.5l-43.4-71.6h-.6c.2 2.5.3 5.2.4 7.9s.2 5.6.4 8.5l.3 8.7V117h-14.3V26.4H265l43.4 71.1h.4c-.1-2.3-.2-4.8-.3-7.5s-.2-5.5-.3-8.4-.2-5.7-.3-8.4V26.4h14.4v90.7zM406.1 67.5h34.3v45.8c-4.8 1.6-9.7 2.8-14.8 3.7s-10.8 1.3-17.2 1.3c-9.2 0-17-1.8-23.3-5.5s-11.2-8.9-14.5-15.9-5-15.4-5-25.3 1.8-17.7 5.5-24.7 9-12.4 16.1-16.2c7-3.8 15.6-5.7 25.6-5.7 4.9 0 9.7.5 14.3 1.5s8.8 2.3 12.7 4l-5.5 12.9c-3-1.4-6.4-2.6-10.1-3.6-3.7-1-7.6-1.5-11.7-1.5-6.3 0-11.8 1.4-16.3 4.2-4.6 2.8-8.1 6.7-10.5 11.7S382 65.1 382 71.9s1 12.3 2.9 17.3 5 8.9 9.1 11.7c4.1 2.8 9.5 4.2 16.1 4.2 3.3 0 6.1-.2 8.4-.5 2.3-.3 4.4-.7 6.4-1.2V80.9H406l.1-13.4zM557 26.4v58.7c0 6.3-1.3 12-4 17s-6.7 9-12.2 11.9c-5.4 2.9-12.2 4.4-20.5 4.4-11.7 0-20.5-3.1-26.7-9.2-6.1-6.1-9.2-14.2-9.2-24.3V26.4h15.8v56.8c0 7.6 1.7 13.1 5.2 16.6 3.5 3.5 8.6 5.2 15.4 5.2 4.8 0 8.6-.8 11.6-2.5s5.2-4.1 6.6-7.4c1.4-3.2 2.1-7.2 2.1-11.9V26.4H557zM603.1 117.1V26.4h15.8v90.7h-15.8zM742.4 117.1h-19.5l-43.4-71.6h-.6c.2 2.5.3 5.2.4 7.9s.2 5.6.4 8.5l.3 8.7V117h-14.3V26.4h19.4l43.3 71.1h.4c-.1-2.3-.2-4.8-.3-7.5s-.2-5.5-.3-8.4c-.1-2.9-.2-5.7-.3-8.4V26.4h14.4l.1 90.7zM840.8 117.1h-51.5V26.4h51.5v13.1H805v23.7h33.5v13.2H805v27.4h35.8v13.3z"/></svg>