<svg xmlns="http://www.w3.org/2000/svg" xml:space="preserve" viewBox="0 0 191 96"><g fill="#FFF"><path d="M33.7 44.7 13.3 13.5v31.3h-7V3.4h8.9l18.7 29.3V3.4h7v41.3h-7.2zm24.1.9c-6.8 0-10.7-5-10.7-11.3V16.4h6.8V33c0 3.5 1.6 6.5 5.7 6.5 3.9 0 5.9-2.6 5.9-6.4V16.4h6.8v23.2c0 2.3.2 4.1.3 5.2H66c-.1-.6-.2-2-.2-3.2-1.4 2.6-4.7 4-8 4zm30.6-29.2h5.9v6h-5.9v13.2c0 2.5 1.1 3.6 3.6 3.6.9 0 2-.2 2.3-.2v5.6c-.4.2-1.7.6-4.1.6-5.2 0-8.5-3.1-8.5-8.4V22.4h-5.2v-6h1.4c3 0 4.4-1.9 4.4-4.4V7.7h6.1v8.7zm28.7 6.7c-.7-.1-1.5-.2-2.2-.2-5.2 0-7.6 3-7.6 8.3v13.5h-6.8V16.4h6.6v4.5c1.3-3.1 4.5-4.9 8.2-4.9.8 0 1.5.1 1.8.2v6.9c-.1 0 0 0 0 0zM124.7 2c2.4 0 4.4 2 4.4 4.4 0 2.4-2 4.4-4.4 4.4-2.4 0-4.4-1.9-4.4-4.4s1.9-4.4 4.4-4.4zm-3.4 42.7V16.4h6.7v28.3h-6.7zm-64.5 7.7H64L52.4 93.7h-7.2l-10-31.2-10 31.2H18L6.3 52.4h7.3l8.3 30.1 9.7-30.1h7.3l9.8 30.4 8.1-30.4zm13.9-1.5c2.4 0 4.4 2 4.4 4.4 0 2.5-2 4.4-4.4 4.4-2.4 0-4.4-1.9-4.4-4.4 0-2.4 2-4.4 4.4-4.4zm-3.4 42.8V65.3H74v28.3h-6.7zm23-28.4h5.9v6h-5.9v13.2c0 2.5 1.1 3.6 3.6 3.6.9 0 2-.2 2.3-.2v5.6c-.4.2-1.7.6-4.1.6-5.2 0-8.5-3.1-8.5-8.4V71.3h-5.2v-6h1.4c3 0 4.4-1.9 4.4-4.4v-4.3h6.1v8.7zm16.9 28.4h-6.8V51.5h6.8V68c1.9-2.5 5.1-3.6 8.1-3.6 7 0 10.3 5 10.3 11.2v17.9h-6.8V76.9c0-3.5-1.6-6.3-5.8-6.3-3.7 0-5.8 2.8-5.9 6.4l.1 16.7zm27.9-42.8c2.4 0 4.4 2 4.4 4.4 0 2.5-2 4.4-4.4 4.4-2.4 0-4.4-1.9-4.4-4.4s2.1-4.4 4.4-4.4zm-3.3 42.8V65.3h6.7v28.3h-6.7zM177.3 92.8c-.9-.8-1.2-1.8-1.2-3s.4-2.2 1.2-3.1c.9-.9 1.9-1.2 3.1-1.2 1.2 0 2.2.4 3.1 1.2.9.9 1.2 1.9 1.2 3.1s-.4 2.2-1.2 3-1.9 1.2-3.1 1.2c-1.3 0-2.3-.4-3.1-1.2zM151.4 93.7h-6.8V65.3h6.6v3.8c1.9-3.2 5.2-4.6 8.4-4.6 6.9 0 10.2 5 10.2 11.2v17.9H163V76.9c0-3.5-1.6-6.3-5.8-6.3-3.8 0-5.9 3-5.9 6.7.1 0 .1 16.4.1 16.4z"/></g></svg>